<?xml version="1.0" encoding="utf-8" ?>	<!-- Generator: Assembly 2.4 - http://assemblyapp.co -->	<svg version="1.1" xmlns="http://www.w3.org/2000/svg" xmlns:xlink="http://www.w3.org/1999/xlink" width="4096.00" height="4096.00" viewBox="0 0 4096.0 4096.0">		<g id="document" transform="scale(13.653333333333334 13.653333333333334) translate(150.0 150.0)">			<path d="M-122.506,122.506 L122.506,122.506 L122.506,-122.506 L-122.506,-122.506 L-122.506,122.506 Z " fill="#feff66" fill-opacity="1.00" />			<path d="M-109.736,109.857 L109.978,109.857 L109.978,-109.857 L-109.736,-109.857 L-109.736,109.857 Z " fill="#88884f" fill-opacity="1.00" />			<path d="M-72.4513,53.2682 C-72.4513,53.9268 -72.122,54.2561 -71.4633,54.4208 C-68.3348,54.5855 -64.2182,54.5855 -59.443,54.5855 C-54.6678,54.7501 -49.3986,54.7501 -43.8001,54.7501 C-37.5429,54.7501 -31.7798,54.0915 -26.3459,52.6095 C-21.0767,51.2922 -16.4662,49.3163 -12.5143,46.517 C-8.72709,43.8824 -5.59851,40.5892 -3.29324,36.4726 C-1.15263,32.3561 -3.55271e-14,27.5809 -3.55271e-14,22.147 C-3.55271e-14,18.1952 -0.493986,14.7373 -1.64662,11.7733 C-2.79925,8.97408 -4.28121,6.50415 -6.0925,4.36354 C-7.90378,2.22294 -9.71506,0.576317 -11.691,-0.740979 C-13.8316,-2.05828 -15.6429,-3.04625 -17.2895,-3.86956 C-16.1369,-4.69287 -14.9842,-5.68084 -13.5023,-6.99814 C-12.185,-8.31543 -10.8677,-9.96205 -9.71506,-11.7733 C-8.56243,-13.5846 -7.57445,-15.7252 -6.75114,-18.1952 C-5.92783,-20.6651 -5.59851,-23.4643 -5.59851,-26.5929 C-5.59851,-29.0629 -5.92783,-31.8621 -6.75114,-35.1553 C-7.57445,-38.4486 -9.38574,-41.5772 -12.0203,-44.3764 C-14.6549,-47.1757 -18.4422,-49.6456 -23.382,-51.7862 C-28.3219,-53.7622 -34.9084,-54.7501 -43.1415,-54.7501 L-50.7159,-54.7501 C-53.5152,-54.5855 -56.1498,-54.5855 -58.6197,-54.5855 C-61.2543,-54.4208 -63.7242,-54.4208 -65.8648,-54.4208 C-68.1701,-54.2561 -70.146,-54.2561 -71.628,-54.2561 C-72.122,-54.0915 -72.4513,-53.7622 -72.4513,-52.9389 L-72.4513,53.2682 Z M-58.949,3.04625 L-42.1535,3.04625 C-39.6836,3.04625 -37.3783,3.04625 -35.2377,3.21091 C-33.0971,3.37557 -30.9565,3.7049 -29.1452,4.19888 C-24.0407,5.51618 -20.2534,7.82145 -17.7835,10.95 C-15.3136,14.0786 -14.1609,18.0305 -14.1609,22.4764 C-14.1609,25.9343 -14.8196,29.0629 -16.3015,31.6974 C-17.7835,34.332 -19.9241,36.4726 -22.7234,38.1193 C-25.5226,39.7659 -28.6512,40.9185 -32.4384,41.7418 C-36.2257,42.5651 -40.3422,43.0591 -44.9527,42.8945 C-47.4227,42.8945 -49.8926,42.8945 -52.3625,42.7298 C-54.8325,42.7298 -57.1377,42.7298 -58.949,42.5651 L-58.949,3.04625 Z M-58.949,-42.5651 C-57.4671,-42.7298 -55.1618,-42.7298 -52.3625,-42.8945 L-43.9648,-42.8945 C-36.061,-42.8945 -29.9685,-41.4125 -25.5226,-38.6133 C-21.2414,-35.6493 -19.1008,-31.0388 -19.1008,-24.7816 C-19.1008,-20.5004 -19.9241,-17.0425 -21.7354,-14.4079 C-23.5467,-11.6087 -25.6873,-9.46807 -28.1572,-7.98611 C-29.4745,-8.15077 -31.6151,-8.4801 -34.4144,-8.64476 C-37.3783,-8.80942 -40.5069,-8.97408 -43.6354,-8.97408 L-58.949,-8.97408 L-58.949,-42.5651 Z " fill="#feff66" fill-opacity="1.00" />			<path d="M36.9359,-38.0392 C30.369,-38.0392 24.7183,-37.2756 19.8313,-35.7484 C14.9442,-34.2212 11.1262,-32.9995 8.52999,-31.9304 C8.37727,-31.7777 8.22455,-31.625 8.22455,-31.3195 C8.37727,-30.2505 8.37727,-29.1815 8.52999,-27.807 L8.52999,-24.5999 L8.52999,70.5447 C8.52999,71.1556 8.83543,71.461 9.29359,71.461 C9.44631,71.461 9.90447,71.461 10.8208,71.3083 C11.5844,71.1556 12.6534,71.0029 13.8752,70.8502 C14.9442,70.6974 16.166,70.6974 17.3878,70.5447 C18.4568,70.392 19.5258,70.392 20.4422,70.2393 C20.9003,70.0866 21.2058,69.7811 21.2058,69.1702 L21.2058,38.6262 C22.2748,38.7789 23.4966,38.9317 24.7183,39.0844 C25.7874,39.2371 27.3146,39.2371 28.9945,39.2371 C34.3397,39.2371 39.6849,38.3208 45.0301,36.6409 C50.2226,34.9609 54.9569,32.5174 59.0803,29.0049 C63.2038,25.645 66.4109,21.3689 69.0071,16.1764 C71.4506,10.9839 72.6724,4.8751 72.6724,-1.9973 C72.6724,-7.03706 71.9088,-11.9241 70.2289,-16.353 C68.549,-20.7819 66.2582,-24.5999 63.2038,-27.807 C60.1494,-31.0141 56.4841,-33.4576 52.0552,-35.2903 C47.6263,-37.1229 42.5866,-38.0392 36.9359,-38.0392 Z M35.4087,-26.8907 C43.1974,-26.8907 49.1535,-24.5999 53.4297,-20.0183 C57.5531,-15.2839 59.6912,-9.02242 59.6912,-1.2337 C59.6912,3.80606 58.7749,8.23494 57.095,11.9002 C55.415,15.7182 53.1242,18.7726 50.3753,21.0634 C47.4736,23.5069 44.2665,25.3396 40.7539,26.4086 C37.2414,27.6304 33.5761,28.2413 29.9108,28.2413 C28.5363,28.2413 27.0091,28.2413 25.4819,28.0885 C23.9547,27.9358 22.5802,27.7831 21.2058,27.3249 L21.2058,-24.4471 C23.3438,-25.2107 25.6346,-25.8216 27.9254,-26.2798 C30.2162,-26.7379 32.8125,-26.8907 35.4087,-26.8907 Z " fill="#feff66" fill-opacity="1.00" />		</g>	</svg>